<?xml version="1.0" encoding="UTF-8" standalone="no"?>
<!-- Created with Inkscape (http://www.inkscape.org/) -->

<svg
   xmlns:dc="http://purl.org/dc/elements/1.1/"
   xmlns:cc="http://creativecommons.org/ns#"
   xmlns:rdf="http://www.w3.org/1999/02/22-rdf-syntax-ns#"
   xmlns:svg="http://www.w3.org/2000/svg"
   xmlns="http://www.w3.org/2000/svg"
   xmlns:sodipodi="http://sodipodi.sourceforge.net/DTD/sodipodi-0.dtd"
   xmlns:inkscape="http://www.inkscape.org/namespaces/inkscape"
   width="384"
   height="128"
   id="svg3023"
   version="1.1"
   inkscape:version="0.48.2 r9819"
   sodipodi:docname="circle.svg"
   inkscape:export-filename="C:\Users\Georges Nguyen\Documents\GitHub\spheres-vs-cubes\assets\inkscape-circle-64.png"
   inkscape:export-xdpi="90"
   inkscape:export-ydpi="90">
  <defs
     id="defs3025" />
  <sodipodi:namedview
     id="base"
     pagecolor="#ffffff"
     bordercolor="#666666"
     borderopacity="1.0"
     inkscape:pageopacity="0.0"
     inkscape:pageshadow="2"
     inkscape:zoom="2.8720594"
     inkscape:cx="192.77325"
     inkscape:cy="109.75958"
     inkscape:current-layer="layer2"
     showgrid="true"
     inkscape:document-units="px"
     inkscape:grid-bbox="true"
     showguides="true"
     inkscape:window-width="1920"
     inkscape:window-height="1138"
     inkscape:window-x="-8"
     inkscape:window-y="-8"
     inkscape:window-maximized="1"
     inkscape:showpageshadow="false"
     inkscape:guide-bbox="true">
    <inkscape:grid
       type="xygrid"
       id="grid3031"
       empspacing="5"
       visible="true"
       enabled="true"
       snapvisiblegridlinesonly="true" />
  </sodipodi:namedview>
  <metadata
     id="metadata3028">
    <rdf:RDF>
      <cc:Work
         rdf:about="">
        <dc:format>image/svg+xml</dc:format>
        <dc:type
           rdf:resource="http://purl.org/dc/dcmitype/StillImage" />
        <dc:title></dc:title>
      </cc:Work>
    </rdf:RDF>
  </metadata>
  <g
     id="layer1"
     inkscape:label="Layer 1"
     inkscape:groupmode="layer"
     transform="translate(0,64)">
    <path
       sodipodi:type="arc"
       style="fill:#ffffff;stroke:#000000;stroke-width:0.20039064;stroke-miterlimit:4;stroke-opacity:1;stroke-dasharray:none"
       id="path3033"
       sodipodi:cx="32"
       sodipodi:cy="32"
       sodipodi:rx="32"
       sodipodi:ry="32"
       d="M 64,32 A 32,32 0 1 1 0,32 32,32 0 1 1 64,32 z"
       transform="matrix(0.99687867,0,0,0.99687867,0.09988258,0.09988287)" />
    <path
       transform="matrix(0.99687867,0,0,0.99687867,64.099883,0.09988257)"
       d="M 64,32 A 32,32 0 1 1 0,32 32,32 0 1 1 64,32 z"
       sodipodi:ry="32"
       sodipodi:rx="32"
       sodipodi:cy="32"
       sodipodi:cx="32"
       id="path3831"
       style="fill:#ffffff;stroke:#000000;stroke-width:0.20039064;stroke-miterlimit:4;stroke-opacity:1;stroke-dasharray:none"
       sodipodi:type="arc" />
    <path
       sodipodi:type="arc"
       style="fill:#ffffff;stroke:#000000;stroke-width:0.20039064;stroke-miterlimit:4;stroke-opacity:1;stroke-dasharray:none"
       id="path3833"
       sodipodi:cx="32"
       sodipodi:cy="32"
       sodipodi:rx="32"
       sodipodi:ry="32"
       d="M 64,32 A 32,32 0 1 1 0,32 32,32 0 1 1 64,32 z"
       transform="matrix(0.99687867,0,0,0.99687867,128.09988,0.09988257)" />
    <path
       transform="matrix(0.99687867,0,0,0.99687867,192.09988,0.09988257)"
       d="M 64,32 A 32,32 0 1 1 0,32 32,32 0 1 1 64,32 z"
       sodipodi:ry="32"
       sodipodi:rx="32"
       sodipodi:cy="32"
       sodipodi:cx="32"
       id="path3835"
       style="fill:#ffffff;stroke:#000000;stroke-width:0.20039064;stroke-miterlimit:4;stroke-opacity:1;stroke-dasharray:none"
       sodipodi:type="arc" />
    <path
       sodipodi:type="arc"
       style="fill:#ffffff;stroke:#000000;stroke-width:0.20039064;stroke-miterlimit:4;stroke-opacity:1;stroke-dasharray:none"
       id="path3837"
       sodipodi:cx="32"
       sodipodi:cy="32"
       sodipodi:rx="32"
       sodipodi:ry="32"
       d="M 64,32 A 32,32 0 1 1 0,32 32,32 0 1 1 64,32 z"
       transform="matrix(0.99687867,0,0,0.99687867,256.09988,0.09988257)" />
    <path
       transform="matrix(0.99687867,0,0,0.99687867,320.09988,0.09988257)"
       d="M 64,32 A 32,32 0 1 1 0,32 32,32 0 1 1 64,32 z"
       sodipodi:ry="32"
       sodipodi:rx="32"
       sodipodi:cy="32"
       sodipodi:cx="32"
       id="path3839"
       style="fill:#ffffff;stroke:#000000;stroke-width:0.20039064;stroke-miterlimit:4;stroke-opacity:1;stroke-dasharray:none"
       sodipodi:type="arc"
       inkscape:export-filename="C:\Users\Georges Nguyen\Documents\GitHub\spheres-vs-cubes\assets\circle-96-idle.png"
       inkscape:export-xdpi="135"
       inkscape:export-ydpi="135" />
    <path
       sodipodi:type="arc"
       style="fill:#ffffff;stroke:#000000;stroke-width:0.20039064;stroke-miterlimit:4;stroke-opacity:1;stroke-dasharray:none"
       id="path3841"
       sodipodi:cx="32"
       sodipodi:cy="32"
       sodipodi:rx="32"
       sodipodi:ry="32"
       d="M 64,32 A 32,32 0 1 1 0,32 32,32 0 1 1 64,32 z"
       transform="matrix(0.99687867,0,0,0.99687867,320.09988,-63.900118)" />
    <path
       transform="matrix(0.99687867,0,0,0.99687867,256.09988,-63.900118)"
       d="M 64,32 A 32,32 0 1 1 0,32 32,32 0 1 1 64,32 z"
       sodipodi:ry="32"
       sodipodi:rx="32"
       sodipodi:cy="32"
       sodipodi:cx="32"
       id="path3843"
       style="fill:#ffffff;stroke:#000000;stroke-width:0.20039064;stroke-miterlimit:4;stroke-opacity:1;stroke-dasharray:none"
       sodipodi:type="arc" />
    <path
       sodipodi:type="arc"
       style="fill:#ffffff;stroke:#000000;stroke-width:0.20039064;stroke-miterlimit:4;stroke-opacity:1;stroke-dasharray:none"
       id="path3845"
       sodipodi:cx="32"
       sodipodi:cy="32"
       sodipodi:rx="32"
       sodipodi:ry="32"
       d="M 64,32 A 32,32 0 1 1 0,32 32,32 0 1 1 64,32 z"
       transform="matrix(0.99687867,0,0,0.99687867,192.09988,-63.900118)" />
    <path
       transform="matrix(0.99687867,0,0,0.99687867,128.09988,-63.900118)"
       d="M 64,32 A 32,32 0 1 1 0,32 32,32 0 1 1 64,32 z"
       sodipodi:ry="32"
       sodipodi:rx="32"
       sodipodi:cy="32"
       sodipodi:cx="32"
       id="path3847"
       style="fill:#ffffff;stroke:#000000;stroke-width:0.20039064;stroke-miterlimit:4;stroke-opacity:1;stroke-dasharray:none"
       sodipodi:type="arc" />
    <path
       sodipodi:type="arc"
       style="fill:#ffffff;stroke:#000000;stroke-width:0.20039064;stroke-miterlimit:4;stroke-opacity:1;stroke-dasharray:none"
       id="path3849"
       sodipodi:cx="32"
       sodipodi:cy="32"
       sodipodi:rx="32"
       sodipodi:ry="32"
       d="M 64,32 A 32,32 0 1 1 0,32 32,32 0 1 1 64,32 z"
       transform="matrix(0.99687867,0,0,0.99687867,64.099883,-63.900118)" />
    <path
       transform="matrix(0.99687867,0,0,0.99687867,0.09988258,-63.900118)"
       d="M 64,32 A 32,32 0 1 1 0,32 32,32 0 1 1 64,32 z"
       sodipodi:ry="32"
       sodipodi:rx="32"
       sodipodi:cy="32"
       sodipodi:cx="32"
       id="path3851"
       style="fill:#ffffff;stroke:#000000;stroke-width:0.20039064;stroke-miterlimit:4;stroke-opacity:1;stroke-dasharray:none"
       sodipodi:type="arc" />
  </g>
  <g
     inkscape:groupmode="layer"
     id="layer2"
     inkscape:label="Layer 2"
     style="display:inline"
     transform="translate(0,64)">
    <path
       sodipodi:type="arc"
       style="fill:none;stroke:#000000;stroke-width:0.20041101;stroke-miterlimit:4;stroke-opacity:1;stroke-dasharray:none"
       id="path3047"
       sodipodi:cx="32"
       sodipodi:cy="32"
       sodipodi:rx="29"
       sodipodi:ry="32"
       d="m 32.000001,64 a 29,32 0 1 1 0,-64"
       transform="matrix(0.99784929,0,0,0.99804916,0.06890341,0.02485376)"
       sodipodi:start="1.5707963"
       sodipodi:end="4.712389"
       sodipodi:open="true" />
    <path
       sodipodi:open="true"
       sodipodi:end="4.712389"
       sodipodi:start="1.5707963"
       transform="matrix(-0.99784929,0,0,0.99804916,318.99363,0.02485376)"
       d="m 32.000001,64 a 29,32 0 1 1 0,-64"
       sodipodi:ry="32"
       sodipodi:rx="29"
       sodipodi:cy="32"
       sodipodi:cx="32"
       id="path3853"
       style="fill:none;stroke:#000000;stroke-width:0.20041101;stroke-miterlimit:4;stroke-opacity:1;stroke-dasharray:none"
       sodipodi:type="arc" />
    <path
       sodipodi:open="true"
       sodipodi:end="4.712389"
       sodipodi:start="1.5707963"
       transform="matrix(0,-0.99784929,0.99804916,0,0.1,-0.537582)"
       d="m 32.000001,64 a 29,32 0 1 1 0,-64"
       sodipodi:ry="32"
       sodipodi:rx="29"
       sodipodi:cy="32"
       sodipodi:cx="32"
       id="path3855"
       style="fill:none;stroke:#000000;stroke-width:0.20041101;stroke-miterlimit:4;stroke-opacity:1;stroke-dasharray:none"
       sodipodi:type="arc" />
    <path
       sodipodi:type="arc"
       style="fill:none;stroke:#000000;stroke-width:0.20041101;stroke-miterlimit:4;stroke-opacity:1;stroke-dasharray:none"
       id="path3857"
       sodipodi:cx="32"
       sodipodi:cy="32"
       sodipodi:rx="29"
       sodipodi:ry="32"
       d="m 32.000001,64 a 29,32 0 1 1 0,-64"
       transform="matrix(0,0.99784929,0.99804916,0,256.1,-63.662178)"
       sodipodi:start="1.5707963"
       sodipodi:end="4.712389"
       sodipodi:open="true" />
  </g>
  <g
     inkscape:groupmode="layer"
     id="layer3"
     inkscape:label="Layer 3"
     style="display:inline"
     transform="translate(0,64)">
    <path
       sodipodi:type="arc"
       style="fill:none;stroke:#000000;stroke-width:0.2005633;stroke-miterlimit:4;stroke-opacity:1;stroke-dasharray:none;display:inline"
       id="path3051"
       sodipodi:cx="32"
       sodipodi:cy="32"
       sodipodi:rx="17"
       sodipodi:ry="32"
       d="M 32,64 A 17,32 0 1 1 32,0"
       transform="matrix(0.99633448,0,0,0.99804917,64.117297,0.02485312)"
       sodipodi:start="1.5707963"
       sodipodi:end="4.712389"
       sodipodi:open="true" />
    <path
       sodipodi:open="true"
       sodipodi:end="4.712389"
       sodipodi:start="1.5707963"
       transform="matrix(-0.99633448,0,0,0.99804917,254.94502,0.02485312)"
       d="M 32,64 A 17,32 0 1 1 32,0"
       sodipodi:ry="32"
       sodipodi:rx="17"
       sodipodi:cy="32"
       sodipodi:cx="32"
       id="path3859"
       style="fill:none;stroke:#000000;stroke-width:0.2005633;stroke-miterlimit:4;stroke-opacity:1;stroke-dasharray:none;display:inline"
       sodipodi:type="arc" />
    <path
       sodipodi:open="true"
       sodipodi:end="4.712389"
       sodipodi:start="1.5707963"
       transform="matrix(0,-0.99633448,0.99804917,0,64.1,-0.5860451)"
       d="M 32,64 A 17,32 0 1 1 32,0"
       sodipodi:ry="32"
       sodipodi:rx="17"
       sodipodi:cy="32"
       sodipodi:cx="32"
       id="path3861"
       style="fill:none;stroke:#000000;stroke-width:0.2005633;stroke-miterlimit:4;stroke-opacity:1;stroke-dasharray:none;display:inline"
       sodipodi:type="arc" />
    <path
       sodipodi:type="arc"
       style="fill:none;stroke:#000000;stroke-width:0.2005633;stroke-miterlimit:4;stroke-opacity:1;stroke-dasharray:none;display:inline"
       id="path3863"
       sodipodi:cx="32"
       sodipodi:cy="32"
       sodipodi:rx="17"
       sodipodi:ry="32"
       d="M 32,64 A 17,32 0 1 1 32,0"
       transform="matrix(0,0.99633448,0.99804917,0,192.1,-65.413766)"
       sodipodi:start="1.5707963"
       sodipodi:end="4.712389"
       sodipodi:open="true" />
  </g>
  <g
     inkscape:groupmode="layer"
     id="layer4"
     inkscape:label="Layer 4"
     style="display:inline"
     transform="translate(0,64)">
    <path
       style="fill:none;stroke:#000000;stroke-width:0.2;stroke-linecap:butt;stroke-linejoin:miter;stroke-miterlimit:4;stroke-opacity:1;stroke-dasharray:none"
       d="M 160.1,0.02491831 160.1,63.9"
       id="path3059"
       inkscape:connector-curvature="0" />
    <path
       inkscape:connector-curvature="0"
       id="path3865"
       d="m 128.1,-32.0625 63.87508,0"
       style="fill:none;stroke:#000000;stroke-width:0.2;stroke-linecap:butt;stroke-linejoin:miter;stroke-miterlimit:4;stroke-opacity:1;stroke-dasharray:none" />
  </g>
</svg>
