<?xml version="1.0" encoding="UTF-8" standalone="no"?>
<!-- Created with Inkscape (http://www.inkscape.org/) -->

<svg
   xmlns:dc="http://purl.org/dc/elements/1.1/"
   xmlns:cc="http://creativecommons.org/ns#"
   xmlns:rdf="http://www.w3.org/1999/02/22-rdf-syntax-ns#"
   xmlns:svg="http://www.w3.org/2000/svg"
   xmlns="http://www.w3.org/2000/svg"
   xmlns:sodipodi="http://sodipodi.sourceforge.net/DTD/sodipodi-0.dtd"
   xmlns:inkscape="http://www.inkscape.org/namespaces/inkscape"
   width="64"
   height="96"
   id="svg3047"
   version="1.1"
   inkscape:version="0.48.2 r9819"
   sodipodi:docname="circle-king.svg"
   inkscape:export-filename="C:\Users\Georges Nguyen\Documents\GitHub\spheres-vs-cubes\assets\circle-king.png"
   inkscape:export-xdpi="90"
   inkscape:export-ydpi="90">
  <defs
     id="defs3049" />
  <sodipodi:namedview
     id="base"
     pagecolor="#ffffff"
     bordercolor="#666666"
     borderopacity="1.0"
     inkscape:pageopacity="0.0"
     inkscape:pageshadow="2"
     inkscape:zoom="5.5"
     inkscape:cx="32"
     inkscape:cy="61.090909"
     inkscape:current-layer="layer1"
     showgrid="true"
     inkscape:document-units="px"
     inkscape:grid-bbox="true"
     inkscape:window-width="744"
     inkscape:window-height="706"
     inkscape:window-x="275"
     inkscape:window-y="275"
     inkscape:window-maximized="0" />
  <metadata
     id="metadata3052">
    <rdf:RDF>
      <cc:Work
         rdf:about="">
        <dc:format>image/svg+xml</dc:format>
        <dc:type
           rdf:resource="http://purl.org/dc/dcmitype/StillImage" />
        <dc:title></dc:title>
      </cc:Work>
    </rdf:RDF>
  </metadata>
  <g
     id="layer1"
     inkscape:label="Layer 1"
     inkscape:groupmode="layer"
     transform="translate(0,32)">
    <path
       transform="matrix(0.99687867,0,0,0.99687867,0.09988258,0.09988254)"
       d="M 64,32 C 64,49.673112 49.673112,64 32,64 14.326888,64 0,49.673112 0,32 0,14.326888 14.326888,0 32,0 49.673112,0 64,14.326888 64,32 z"
       sodipodi:ry="32"
       sodipodi:rx="32"
       sodipodi:cy="32"
       sodipodi:cx="32"
       id="path3839"
       style="fill:#ffffff;stroke:#000000;stroke-width:0.20039064;stroke-miterlimit:4;stroke-opacity:1;stroke-dasharray:none"
       sodipodi:type="arc"
       inkscape:export-filename="C:\Users\Georges Nguyen\Documents\GitHub\spheres-vs-cubes\assets\circle-96-idle.png"
       inkscape:export-xdpi="135"
       inkscape:export-ydpi="135" />
    <path
       sodipodi:type="star"
       style="fill:none;stroke:#404040;stroke-width:0.1;stroke-miterlimit:4;stroke-opacity:1;stroke-dasharray:none"
       id="path3030"
       sodipodi:sides="3"
       sodipodi:cx="7.181818"
       sodipodi:cy="15.636364"
       sodipodi:r1="8.1727219"
       sodipodi:r2="4.0863609"
       sodipodi:arg1="0.52359878"
       sodipodi:arg2="1.5707963"
       inkscape:flatsided="false"
       inkscape:rounded="0"
       inkscape:randomized="0"
       d="m 14.259603,19.722725 -7.0777849,0 -7.07778486,0 L 3.6429256,13.593184 7.181818,7.4636421 10.72071,13.593183 z"
       inkscape:transform-center-y="-1.4253693"
       transform="matrix(1.146984,0,0,1.146984,23.727785,-31.868435)" />
    <path
       transform="matrix(1.1079014,-0.29686128,0.29686128,1.1079014,2.0923282,-26.856905)"
       d="m 14.259603,19.722725 -7.0777849,0 -7.07778486,0 L 3.6429256,13.593184 7.181818,7.4636421 10.72071,13.593183 z"
       inkscape:randomized="0"
       inkscape:rounded="0"
       inkscape:flatsided="false"
       sodipodi:arg2="1.5707963"
       sodipodi:arg1="0.52359878"
       sodipodi:r2="4.0863609"
       sodipodi:r1="8.1727219"
       sodipodi:cy="15.636364"
       sodipodi:cx="7.181818"
       sodipodi:sides="3"
       id="path3800"
       style="fill:none;stroke:#404040;stroke-width:0.1;stroke-miterlimit:4;stroke-opacity:1;stroke-dasharray:none"
       sodipodi:type="star"
       inkscape:transform-center-y="-0.7378246"
       inkscape:transform-center-x="-0.73782665" />
    <path
       sodipodi:type="star"
       style="fill:none;stroke:#404040;stroke-width:0.1;stroke-miterlimit:4;stroke-opacity:1;stroke-dasharray:none"
       id="path3802"
       sodipodi:sides="3"
       sodipodi:cx="7.181818"
       sodipodi:cy="15.636364"
       sodipodi:r1="8.1727219"
       sodipodi:r2="4.0863609"
       sodipodi:arg1="0.52359878"
       sodipodi:arg2="1.5707963"
       inkscape:flatsided="false"
       inkscape:rounded="0"
       inkscape:randomized="0"
       d="m 14.259603,19.722725 -7.0777849,0 -7.07778486,0 L 3.6429256,13.593184 7.181818,7.4636421 10.72071,13.593183 z"
       inkscape:transform-center-y="-0.73782516"
       transform="matrix(1.1079014,0.29686128,-0.29686128,1.1079014,45.913662,-31.109968)"
       inkscape:transform-center-x="0.73782692" />
    <path
       style="fill:#ffff00;fill-opacity:1;stroke:#000000;stroke-width:0.01056886000000000;stroke-miterlimit:4;stroke-opacity:1;stroke-dasharray:none"
       d="m 8.3593227,-5.700421 c 0.080595,-0.2793376 0.9892155,-3.6706221 2.0191613,-7.536185 1.029945,-3.865564 1.902809,-7.062862 1.939695,-7.10511 0.03689,-0.04225 2.560622,2.417082 5.6083,5.465174 3.047679,3.048093 5.51952,5.5610721 5.492982,5.584399 -0.02654,0.02333 -3.377445,0.931038 -7.44646,2.0171371 -4.069015,1.0860975 -7.4796587,1.9989661 -7.5792091,2.0285983 -0.1672015,0.049768 -0.1698288,0.015126 -0.034477,-0.4540134 z"
       id="path2994"
       inkscape:connector-curvature="0" />
    <path
       style="fill:#ffff00;fill-opacity:1;stroke:#000000;stroke-width:0.01056886000000000;stroke-miterlimit:4;stroke-opacity:1;stroke-dasharray:none"
       d="m 24.089995,-9.4053906 c 1.177909,-2.1084144 7.832193,-13.5541944 7.879556,-13.5533284 0.03747,6.84e-4 1.376026,2.270782 2.974566,5.04466 1.598542,2.773877 3.366792,5.840931 3.929445,6.815675 l 1.023004,1.7722585 -7.925429,0 c -4.358985,0 -7.905498,-0.035678 -7.881142,-0.079263 z"
       id="path2996"
       inkscape:connector-curvature="0" />
    <path
       style="fill:#ffff00;fill-opacity:1;stroke:#000000;stroke-width:0.01056886000000000;stroke-miterlimit:4;stroke-opacity:1;stroke-dasharray:none"
       d="m 47.970586,-7.2482707 -7.529979,-2.0249467 5.570148,-5.5708926 c 3.063583,-3.063991 5.580221,-5.560819 5.592532,-5.54851 0.02871,0.02871 4.055813,15.0511702 4.055813,15.1295574 0,0.086678 0.402111,0.1905053 -7.688514,-1.9852081 z"
       id="path2998"
       inkscape:connector-curvature="0" />
  </g>
</svg>
