<?xml version="1.0" encoding="UTF-8" standalone="no"?>
<!-- Created with Inkscape (http://www.inkscape.org/) -->

<svg
   xmlns:dc="http://purl.org/dc/elements/1.1/"
   xmlns:cc="http://creativecommons.org/ns#"
   xmlns:rdf="http://www.w3.org/1999/02/22-rdf-syntax-ns#"
   xmlns:svg="http://www.w3.org/2000/svg"
   xmlns="http://www.w3.org/2000/svg"
   xmlns:sodipodi="http://sodipodi.sourceforge.net/DTD/sodipodi-0.dtd"
   xmlns:inkscape="http://www.inkscape.org/namespaces/inkscape"
   width="64"
   height="96"
   id="svg3763"
   version="1.1"
   inkscape:version="0.48.2 r9819"
   sodipodi:docname="square-king.svg"
   inkscape:export-filename="C:\Users\Georges Nguyen\Documents\GitHub\spheres-vs-cubes\assets\square-king.png"
   inkscape:export-xdpi="90"
   inkscape:export-ydpi="90">
  <defs
     id="defs3765" />
  <sodipodi:namedview
     id="base"
     pagecolor="#ffffff"
     bordercolor="#666666"
     borderopacity="1.0"
     inkscape:pageopacity="0.0"
     inkscape:pageshadow="2"
     inkscape:zoom="7.890826"
     inkscape:cx="12.230206"
     inkscape:cy="64.925901"
     inkscape:current-layer="layer1"
     showgrid="true"
     inkscape:document-units="px"
     inkscape:grid-bbox="true"
     inkscape:window-width="1187"
     inkscape:window-height="725"
     inkscape:window-x="113"
     inkscape:window-y="248"
     inkscape:window-maximized="0" />
  <metadata
     id="metadata3768">
    <rdf:RDF>
      <cc:Work
         rdf:about="">
        <dc:format>image/svg+xml</dc:format>
        <dc:type
           rdf:resource="http://purl.org/dc/dcmitype/StillImage" />
        <dc:title></dc:title>
      </cc:Work>
    </rdf:RDF>
  </metadata>
  <g
     id="layer1"
     inkscape:label="Layer 1"
     inkscape:groupmode="layer"
     transform="translate(0,32)">
    <rect
       style="fill:#4d4d4d;fill-opacity:1;stroke:#000000;stroke-width:0.09980499;stroke-miterlimit:4;stroke-opacity:1;stroke-dasharray:none"
       id="rect3771"
       width="63.875244"
       height="63.875145"
       x="0.062378131"
       y="0.062477201" />
    <path
       sodipodi:type="star"
       style="fill:none;stroke:#404040;stroke-width:0.1;stroke-miterlimit:4;stroke-opacity:1;stroke-dasharray:none"
       id="path3030"
       sodipodi:sides="3"
       sodipodi:cx="7.181818"
       sodipodi:cy="15.636364"
       sodipodi:r1="8.1727219"
       sodipodi:r2="4.0863609"
       sodipodi:arg1="0.52359878"
       sodipodi:arg2="1.5707963"
       inkscape:flatsided="false"
       inkscape:rounded="0"
       inkscape:randomized="0"
       d="m 14.259603,19.722725 -7.0777849,0 -7.07778486,0 L 3.6429256,13.593184 7.181818,7.4636421 10.72071,13.593183 z"
       inkscape:transform-center-y="-1.4253698"
       transform="matrix(1.1469724,0,0,1.146984,23.727627,-31.868926)" />
    <path
       transform="matrix(1.1078902,-0.29686129,0.29685829,1.1079014,2.0923878,-26.857396)"
       d="m 14.259603,19.722725 -7.0777849,0 -7.07778486,0 L 3.6429256,13.593184 7.181818,7.4636421 10.72071,13.593183 z"
       inkscape:randomized="0"
       inkscape:rounded="0"
       inkscape:flatsided="false"
       sodipodi:arg2="1.5707963"
       sodipodi:arg1="0.52359878"
       sodipodi:r2="4.0863609"
       sodipodi:r1="8.1727219"
       sodipodi:cy="15.636364"
       sodipodi:cx="7.181818"
       sodipodi:sides="3"
       id="path3800"
       style="fill:none;stroke:#404040;stroke-width:0.1;stroke-miterlimit:4;stroke-opacity:1;stroke-dasharray:none"
       sodipodi:type="star"
       inkscape:transform-center-y="-0.73782517"
       inkscape:transform-center-x="-0.73781898" />
    <path
       sodipodi:type="star"
       style="fill:none;stroke:#404040;stroke-width:0.1;stroke-miterlimit:4;stroke-opacity:1;stroke-dasharray:none"
       id="path3802"
       sodipodi:sides="3"
       sodipodi:cx="7.181818"
       sodipodi:cy="15.636364"
       sodipodi:r1="8.1727219"
       sodipodi:r2="4.0863609"
       sodipodi:arg1="0.52359878"
       sodipodi:arg2="1.5707963"
       inkscape:flatsided="false"
       inkscape:rounded="0"
       inkscape:randomized="0"
       d="m 14.259603,19.722725 -7.0777849,0 -7.07778486,0 L 3.6429256,13.593184 7.181818,7.4636421 10.72071,13.593183 z"
       inkscape:transform-center-y="-0.73782559"
       transform="matrix(1.1078902,0.29686129,-0.29685829,1.1079014,45.91328,-31.110459)"
       inkscape:transform-center-x="0.73781998" />
    <path
       style="fill:#ffff00;fill-opacity:1;stroke:#000000;stroke-width:0.01056881;stroke-miterlimit:4;stroke-opacity:1;stroke-dasharray:none"
       d="m 8.3593191,-5.7009105 c 0.080594,-0.279338 0.9892057,-3.670622 2.0191409,-7.5361845 1.029935,-3.865566 1.90279,-7.062864 1.939676,-7.105112 0.03689,-0.04225 2.560596,2.417082 5.608243,5.465175 3.047648,3.048094 5.519465,5.5610725 5.492927,5.5843995 -0.02654,0.02333 -3.377411,0.931038 -7.446385,2.017137 -4.068974,1.086098 -7.4795836,1.9989661 -7.579133,2.0285981 -0.1671998,0.04977 -0.1698271,0.01513 -0.034477,-0.4540131 z"
       id="path2994"
       inkscape:connector-curvature="0" />
    <path
       style="fill:#ffff00;fill-opacity:1;stroke:#000000;stroke-width:0.01056881;stroke-miterlimit:4;stroke-opacity:1;stroke-dasharray:none"
       d="m 24.089833,-9.4058805 c 1.177897,-2.1084135 7.832114,-13.5541955 7.879477,-13.5533295 0.03747,6.84e-4 1.376012,2.270782 2.974536,5.04466 1.598526,2.773877 3.366758,5.840933 3.929405,6.815677 l 1.022994,1.7722575 -7.925349,0 c -4.358941,0 -7.905419,-0.03568 -7.881063,-0.07926 z"
       id="path2996"
       inkscape:connector-curvature="0" />
    <path
       style="fill:#ffff00;fill-opacity:1;stroke:#000000;stroke-width:0.01056881;stroke-miterlimit:4;stroke-opacity:1;stroke-dasharray:none"
       d="M 47.970183,-7.2487605 40.44028,-9.2737065 46.010372,-14.8446 c 3.063552,-3.063992 5.580165,-5.56082 5.592476,-5.548511 0.02871,0.02871 4.055772,15.0511716 4.055772,15.1295586 0,0.08668 0.402107,0.190506 -7.688437,-1.9852081 z"
       id="path2998"
       inkscape:connector-curvature="0" />
  </g>
</svg>
